<svg xmlns="http://www.w3.org/2000/svg" viewBox="0 0 747.92 768"><defs><style>.cls-1{fill:#fff;}</style></defs><title>logo white</title><g id="Layer_1" data-name="Layer 1"><path class="cls-1" d="M190.24,235.13a39.24,39.24,0,0,1,31.65,16L373.5,456.88,525.11,251.11a39.27,39.27,0,1,1,63.24,46.57L405.12,546.35c-14.83,20.09-48.41,20.09-63.24,0L158.65,297.68a39.26,39.26,0,0,1,31.59-62.55Z"/><path class="cls-1" d="M556.76,533.87a39.24,39.24,0,0,1-31.65-16L373.5,312.12,221.89,517.89a39.27,39.27,0,1,1-63.24-46.57L341.88,222.65c14.83-20.09,48.41-20.09,63.24,0L588.35,471.32a39.26,39.26,0,0,1-31.59,62.55Z"/></g></svg>