<svg xmlns="http://www.w3.org/2000/svg" viewBox="0 0 964.06 224.27"><defs><style>.cls-1{fill:#fff;}</style></defs><title>Logo White copy</title><g id="Layer_1" data-name="Layer 1"><path class="cls-1" d="M27.75,13.6h76.34q27.18,0,41.31,13.07t14.11,37.65q0,14.9-5.36,24.7t-16.34,16.61a62.1,62.1,0,0,1,18.7,6.4,40.78,40.78,0,0,1,12.55,10.59A39.54,39.54,0,0,1,176,136.74a64.49,64.49,0,0,1,2.1,16.73A59.2,59.2,0,0,1,173.24,178a49.86,49.86,0,0,1-13.6,18,58,58,0,0,1-21.3,11,100.83,100.83,0,0,1-28.24,3.66H27.75ZM79,91H88.4q24,0,24-19.08t-24-19.09H79Zm0,80H90.23q19.35,0,27.71-5t8.37-16q0-11-8.37-15.95t-27.71-5H79Z"/><path class="cls-1" d="M372.58,210.73H308.79L259.9,134.91v75.82H208.66V13.6H288.4q16.47,0,28.76,4.84A54.17,54.17,0,0,1,349.45,51a67.48,67.48,0,0,1,4.05,23.53q0,22.5-10.85,36.48t-32,19ZM259.9,101.7h9.68q15.15,0,23.26-6.27t8.11-18q0-11.76-8.11-18t-23.26-6.27H259.9Z"/><path class="cls-1" d="M663.83,176.48H590.62l-11.76,34.25H524.22l75-197.13h56l75,197.13H675.59Zm-13.6-39-23-65.62-23,65.62Z"/><path class="cls-1" d="M804,94.91,866.44,13.6h63.27l-78.17,93.33L937,210.73H870.62L804,125.23v85.5H752.71V13.6H804Z"/><rect class="cls-1" x="394.04" y="13.6" width="112.12" height="43.4"/><rect class="cls-1" x="394.04" y="89.99" width="112.12" height="43.4"/><rect class="cls-1" x="394.04" y="167.49" width="112.12" height="43.4"/></g></svg>